<svg width="151" height="39" viewBox="0 0 151 39" fill="none" xmlns="http://www.w3.org/2000/svg">
<path d="M0 28.7321L0.632932 18.5542L0.99461 10.6282V7.20553C2.53173 7.20553 3.88802 7.20553 5.06347 7.20553C6.41975 7.20553 7.68562 7.20553 8.95149 7.20553L8.77065 9.99767C9.22274 9.45726 9.58442 9.00691 9.85568 8.7367C10.1269 8.4665 10.4886 8.10622 10.9407 7.83601C11.3928 7.56581 11.8449 7.38567 12.297 7.20553C12.7491 7.02539 13.2916 6.93532 13.8341 6.84525C14.3766 6.75518 15.0096 6.66511 15.6425 6.66511C16.3659 6.66511 16.9988 6.75518 17.6317 6.84525C18.2646 6.93532 18.8072 7.11546 19.1688 7.2956C19.5305 7.47574 19.9826 7.65587 20.3443 7.92608C20.706 8.19629 20.9772 8.4665 21.1581 8.7367C21.3389 9.00691 21.7006 9.45726 21.9718 10.0877C22.6048 9.18705 23.2377 8.4665 23.9611 8.01615C24.6844 7.56581 25.679 7.11546 26.5832 6.93532C27.4874 6.75518 28.3916 6.57504 29.2958 6.57504C30.5616 6.57504 31.6467 6.75518 32.7317 7.11546C33.8167 7.47574 34.7209 8.10622 35.4443 8.91684C36.1676 9.81754 36.5293 10.8984 36.5293 12.2494C36.5293 12.8799 36.4389 13.8706 36.3485 15.2217C36.258 16.5727 36.1676 18.7344 35.9868 21.9769C35.806 25.2194 35.7155 27.381 35.7155 28.642C34.4497 28.642 33.1838 28.642 31.9179 28.642C30.4712 28.642 28.8437 28.642 27.2161 28.642C27.397 26.8406 27.4874 24.5889 27.6682 21.8868C27.8491 19.1847 27.8491 17.2933 27.8491 16.3025C27.8491 15.4018 27.7587 14.6813 27.4874 14.2309C27.3066 13.7806 27.0353 13.5104 26.6736 13.3302C26.3119 13.1501 25.9503 13.06 25.5886 13.06C25.1365 13.06 24.7748 13.1501 24.5036 13.3302C24.1419 13.5104 23.8706 13.7806 23.5994 14.1409C23.2377 14.5912 22.9664 15.2217 22.7856 15.9422C22.6048 16.4827 22.5143 17.3833 22.4239 18.4642C22.3335 19.6351 22.2431 21.1663 22.1527 23.0577L22.0623 28.7321C20.5251 28.7321 19.1688 28.7321 17.9934 28.7321C16.7275 28.7321 15.2808 28.7321 13.6533 28.7321C13.7437 27.4711 13.9245 25.3995 14.1054 22.4272C14.2862 19.4549 14.3766 17.4734 14.3766 16.4827C14.3766 15.672 14.2862 15.0415 14.1054 14.5912C13.9245 14.1409 13.7437 13.8706 13.382 13.6004C13.0203 13.3302 12.6587 13.2402 12.2066 13.2402C11.6641 13.2402 11.212 13.4203 10.7599 13.6905C10.3078 13.9607 10.0365 14.5011 9.67484 15.0415C9.31316 15.582 9.22274 16.4827 9.0419 17.5635C8.86107 18.6443 8.77065 20.2656 8.68023 22.4272C8.58981 24.5889 8.49939 26.7505 8.49939 28.7321C6.78143 28.7321 5.42514 28.7321 4.34011 28.7321C3.16467 28.642 1.71796 28.642 0 28.7321Z" fill="#67BB5A"/>
<path d="M68.0848 13.3303C68.3561 11.9792 68.5369 10.9885 68.6273 10.4481C68.7178 9.90764 68.8082 9.09701 68.989 7.92611C73.0579 7.02542 76.5842 6.57507 79.4776 6.57507C81.1052 6.57507 82.6423 6.75521 84.089 7.11549C85.5357 7.47577 86.5303 8.10625 87.3441 8.91687C88.1578 9.7275 88.5195 10.8984 88.5195 12.5196C88.5195 13.3303 88.4291 15.0416 88.1579 17.8337C87.977 20.6259 87.7962 24.2286 87.7058 28.642C86.3495 28.642 84.9028 28.642 83.5465 28.642C82.1902 28.642 80.8339 28.642 79.2968 28.642C79.4776 27.1108 79.6585 23.8684 79.9297 19.0947C79.3872 19.3649 78.9351 19.545 78.6638 19.6351C78.3926 19.7252 77.8501 19.9053 77.0363 20.1755C76.313 20.4457 75.68 20.6259 75.2279 20.7159C74.7758 20.8961 74.4142 21.0762 74.1429 21.3464C73.7812 21.6166 73.6004 21.7968 73.51 22.067C73.4195 22.3372 73.3291 22.6074 73.3291 22.8776C73.3291 23.3279 73.51 23.7783 73.8716 24.1386C74.2333 24.4988 74.8663 24.679 75.68 24.679C75.9513 24.679 76.313 24.679 76.6746 24.5889C77.0363 24.4988 77.4884 24.4088 78.0309 24.2286C77.5788 25.3095 77.1267 26.9307 76.5842 29.0023C75.4088 29.1824 74.2333 29.2725 73.1483 29.2725C71.4303 29.2725 69.8932 29.0023 68.8082 28.552C67.7231 28.1016 66.7285 27.291 66.0956 26.2102C65.4627 25.1293 65.1914 24.0485 65.1914 22.9677C65.1914 22.3372 65.2818 21.6166 65.5531 20.9861C65.8243 20.3557 66.186 19.7252 66.6381 19.0947C67.0902 18.4642 67.7231 18.0139 68.3561 17.5635C68.989 17.1132 69.8932 16.7529 71.0686 16.3926C72.2441 16.0323 73.6908 15.6721 75.4088 15.3118C76.1321 15.1316 76.8555 15.0416 77.398 14.8614C78.0309 14.6813 78.483 14.5912 78.7543 14.4111C79.0255 14.231 79.2064 14.1409 79.3872 13.9607C79.568 13.7806 79.6585 13.6005 79.7489 13.4203C79.8393 13.2402 79.8393 13.0601 79.8393 12.8799C79.8393 12.3395 79.568 11.8892 79.1159 11.6189C78.6638 11.3487 78.0309 11.1686 77.1267 11.1686C74.595 11.2587 71.6112 11.8892 68.0848 13.3303Z" fill="#67BB5A"/>
<path d="M92.3164 28.7321L92.6781 24.2286L93.4919 8.46651L93.7631 0C95.7523 0 97.199 0 98.1936 0C99.4595 0 100.906 0 102.443 0L101.991 6.48498L101.177 22.4272L100.997 28.8221C99.4595 28.8221 98.1032 28.8221 96.9278 28.8221L92.3164 28.7321Z" fill="#67BB5A"/>
<path d="M105.609 28.2817C105.519 27.6513 105.519 27.0208 105.429 26.3002C105.338 25.5797 105.248 24.679 105.157 23.5081L104.977 21.9769C106.333 22.5173 107.508 22.8776 108.503 23.1478C109.498 23.418 110.402 23.5081 111.215 23.5081C111.939 23.5081 112.481 23.418 112.933 23.3279C113.386 23.2379 113.657 23.0577 113.838 22.7875C114.018 22.5173 114.109 22.3372 114.109 22.067C114.109 21.7968 114.018 21.6166 113.928 21.4365C113.747 21.2564 113.476 20.8961 112.933 20.5358C111.758 19.7252 110.763 18.9146 109.859 18.194C108.955 17.4734 108.322 16.933 107.87 16.3926C107.418 15.8522 107.056 15.3118 106.875 14.6813C106.695 14.0508 106.514 13.4203 106.514 12.7898C106.514 11.619 106.875 10.5381 107.508 9.54736C108.141 8.5566 109.136 7.83604 110.492 7.3857C111.848 6.93535 113.386 6.66515 115.284 6.66515C117.274 6.66515 119.715 6.93535 122.789 7.3857L123.151 13.3303C121.433 12.6097 119.805 12.3395 118.178 12.3395C117.093 12.3395 116.279 12.4296 115.736 12.6998C115.194 12.97 115.013 13.2402 115.013 13.7806C115.013 13.9607 115.013 14.0508 115.103 14.231C115.194 14.4111 115.284 14.5012 115.375 14.6813C115.465 14.8614 115.736 14.9515 115.917 15.1316C116.098 15.3118 116.641 15.6721 117.545 16.3025C118.449 16.933 119.082 17.3834 119.534 17.7437C120.348 18.3741 120.89 18.9146 121.342 19.455C121.795 19.9954 122.066 20.5358 122.337 21.1663C122.608 21.7968 122.699 22.4273 122.699 23.0577C122.699 24.0485 122.427 24.9492 121.975 25.8499C121.523 26.7506 120.709 27.3811 119.805 27.9215C118.901 28.4619 117.726 28.9122 116.641 29.0924C115.556 29.2725 114.29 29.4527 113.114 29.4527C112.301 29.4527 111.306 29.3626 110.04 29.2725C108.774 29.1824 107.237 28.642 105.609 28.2817Z" fill="#67BB5A"/>
<path d="M124.959 38.3695C124.507 35.0369 124.236 32.8753 124.055 32.0647C124.959 32.515 125.773 32.7852 126.406 32.9654C127.129 33.1455 127.671 33.2356 128.214 33.2356C128.756 33.2356 129.209 33.1455 129.661 33.0554C130.113 32.8753 130.474 32.7852 130.746 32.515C131.017 32.3349 131.288 31.9746 131.65 31.6143C132.012 31.254 132.192 30.8037 132.373 30.5335C132.554 30.2633 132.644 29.8129 132.825 29.2725L128.847 17.2933L125.411 7.29564C127.491 7.29564 129.028 7.29564 129.842 7.29564C130.836 7.29564 132.192 7.29564 133.91 7.29564C134.182 8.37647 134.634 10.2679 135.447 12.8799C136.171 15.582 136.713 17.6536 136.985 19.0947C137.165 19.9053 137.346 20.9862 137.527 22.2471L137.979 20.5358C138.16 20.0855 138.25 19.545 138.431 19.0046C138.612 18.4642 138.883 17.7437 139.155 16.933L140.511 13.0601L142.771 7.20557C144.58 7.20557 145.846 7.20557 146.75 7.20557C147.564 7.20557 148.92 7.20557 151 7.20557L146.931 16.3926L139.516 33.5058C139.064 34.4965 138.612 35.2171 138.16 35.7575C137.708 36.2979 137.346 36.7483 136.804 37.1085C136.352 37.4688 135.9 37.739 135.357 38.0092C134.634 38.3695 133.91 38.5496 133.006 38.7298C132.102 38.9099 131.107 39 130.203 39C129.751 39 129.209 39 128.485 38.9099C127.762 38.8199 127.219 38.8199 126.767 38.7298C126.315 38.6397 125.682 38.5496 124.959 38.3695Z" fill="#67BB5A"/>
<path d="M53.7085 23.7782C52.1714 23.7782 50.8151 23.4179 49.7301 22.6974C49.0972 22.247 48.6451 21.6165 48.3738 20.896H39.9648C40.0553 21.3463 40.1457 21.8868 40.3265 22.3371C40.6882 23.508 41.2307 24.5888 41.8636 25.4895C42.4966 26.3902 43.4008 27.1108 44.3954 27.6512C45.39 28.2817 46.6558 28.6419 48.0121 28.9122C49.3684 29.1824 50.996 29.2724 52.6235 29.2724C53.799 29.2724 54.884 29.1824 56.0594 29.0923C57.2349 29.0022 58.5912 28.732 60.2187 28.4618C60.7612 25.2193 61.1229 23.1477 61.3037 22.3371C59.5858 22.8775 58.0487 23.2378 56.8732 23.4179C55.6978 23.5981 54.7031 23.7782 53.7085 23.7782Z" fill="#67BB5A"/>
<path d="M51.3478 6.66512C52.3952 6.66512 53.2443 5.77796 53.2443 4.68359C53.2443 3.58923 52.3952 2.70207 51.3478 2.70207C50.3003 2.70207 49.4512 3.58923 49.4512 4.68359C49.4512 5.77796 50.3003 6.66512 51.3478 6.66512Z" fill="#67BB5A"/>
<path d="M51.348 6.21463C45.141 6.21463 40.0547 11.4386 40.0547 18.0137H62.5551C62.6413 11.5287 57.555 6.21463 51.348 6.21463ZM47.641 9.54719C44.8824 10.9883 43.3306 13.0599 42.6409 14.0507C42.8996 13.24 44.0203 10.4479 46.9514 8.73657C50.9169 6.39477 54.8825 8.01601 55.3998 8.19615C54.2791 8.10608 51.0894 7.74581 47.641 9.54719Z" fill="#67BB5A"/>
</svg>
